<svg xmlns="http://www.w3.org/2000/svg" xmlns:xlink="http://www.w3.org/1999/xlink" width="1920" zoomAndPan="magnify" viewBox="0 0 1440 809.999993" height="1080" preserveAspectRatio="xMidYMid meet" version="1.0"><defs><clipPath id="e40b11bc48"><path d="M 492 243 L 948 243 L 948 567 L 492 567 Z M 492 243 " clip-rule="nonzero"/></clipPath></defs><g clip-path="url(#e40b11bc48)"><path fill="#b3b3b3" d="M 924.113281 292.078125 L 898.828125 292.078125 L 898.828125 268.753906 C 898.828125 254.695312 887.386719 243.257812 873.324219 243.257812 L 518 243.257812 C 503.9375 243.257812 492.496094 254.695312 492.496094 268.753906 L 492.496094 493.210938 C 492.496094 507.269531 503.9375 518.707031 518 518.707031 L 541.324219 518.707031 L 541.324219 543.992188 C 541.324219 556.964844 551.886719 567.527344 564.867188 567.527344 L 924.113281 567.527344 C 937.09375 567.527344 947.65625 556.964844 947.65625 543.992188 L 947.65625 315.613281 C 947.65625 302.628906 937.09375 292.078125 924.113281 292.078125 Z M 518 258.949219 L 873.324219 258.949219 C 878.730469 258.949219 883.132812 263.351562 883.132812 268.753906 L 883.132812 440.632812 L 790.957031 348.484375 C 785.007812 342.539062 775.339844 342.539062 769.390625 348.484375 L 714.839844 403.015625 L 644.527344 332.722656 C 638.578125 326.777344 628.910156 326.777344 622.96875 332.722656 L 508.191406 447.464844 L 508.191406 268.753906 C 508.191406 263.351562 512.59375 258.949219 518 258.949219 Z M 508.191406 493.210938 L 508.191406 469.644531 L 633.429688 343.816406 L 771.203125 481.542969 C 772.734375 483.074219 774.742188 483.84375 776.75 483.84375 C 778.761719 483.84375 780.769531 483.074219 782.300781 481.542969 C 785.367188 478.476562 785.367188 473.519531 782.300781 470.449219 L 725.914062 414.085938 L 779.859375 359.585938 L 883.132812 462.824219 L 883.132812 493.21875 C 883.132812 498.621094 878.730469 503.023438 873.324219 503.023438 L 518 503.023438 C 512.59375 503.015625 508.191406 498.621094 508.191406 493.210938 Z M 931.960938 543.992188 C 931.960938 548.320312 928.4375 551.835938 924.113281 551.835938 L 564.867188 551.835938 C 560.542969 551.835938 557.019531 548.320312 557.019531 543.992188 L 557.019531 518.707031 L 873.324219 518.707031 C 887.386719 518.707031 898.828125 507.269531 898.828125 493.210938 L 898.828125 307.769531 L 924.113281 307.769531 C 928.4375 307.769531 931.960938 311.285156 931.960938 315.613281 Z M 931.960938 543.992188 " fill-opacity="1" fill-rule="nonzero"/></g><path fill="#b3b3b3" d="M 708.742188 331.304688 C 724.257812 331.304688 736.886719 318.6875 736.886719 303.171875 C 736.886719 287.652344 724.257812 275.039062 708.742188 275.039062 C 693.230469 275.039062 680.601562 287.652344 680.601562 303.171875 C 680.601562 318.6875 693.230469 331.304688 708.742188 331.304688 Z M 708.742188 290.730469 C 715.609375 290.730469 721.191406 296.316406 721.191406 303.171875 C 721.191406 310.027344 715.609375 315.613281 708.742188 315.613281 C 701.878906 315.613281 696.296875 310.027344 696.296875 303.171875 C 696.296875 296.316406 701.878906 290.730469 708.742188 290.730469 Z M 708.742188 290.730469 " fill-opacity="1" fill-rule="nonzero"/></svg>