<svg xmlns="http://www.w3.org/2000/svg" xmlns:xlink="http://www.w3.org/1999/xlink" width="1920" zoomAndPan="magnify" viewBox="0 0 1440 809.999993" height="1080" preserveAspectRatio="xMidYMid meet" version="1.0"><defs><clipPath id="5f304ba57f"><path d="M 548.570312 243 L 891 243 L 891 567 L 548.570312 567 Z M 548.570312 243 " clip-rule="nonzero"/></clipPath></defs><g clip-path="url(#5f304ba57f)"><path fill="#b3b3b3" d="M 586.953125 247.640625 C 586.367188 247.039062 585.722656 246.496094 585.027344 246.019531 C 584.332031 245.542969 583.597656 245.140625 582.820312 244.8125 C 582.042969 244.480469 581.242188 244.230469 580.417969 244.0625 C 579.589844 243.890625 578.757812 243.804688 577.914062 243.800781 C 577.070312 243.796875 576.234375 243.875 575.40625 244.039062 C 574.582031 244.203125 573.777344 244.445312 573 244.769531 C 572.21875 245.089844 571.480469 245.488281 570.78125 245.957031 C 570.082031 246.429688 569.433594 246.964844 568.839844 247.5625 C 568.246094 248.164062 567.71875 248.816406 567.257812 249.519531 C 566.792969 250.222656 566.402344 250.96875 566.089844 251.75 C 565.773438 252.53125 565.539062 253.339844 565.382812 254.167969 C 565.230469 254.996094 565.160156 255.832031 565.171875 256.675781 C 565.183594 257.519531 565.277344 258.355469 565.457031 259.179688 C 565.632812 260.003906 565.890625 260.800781 566.230469 261.574219 C 566.566406 262.347656 566.976562 263.078125 567.460938 263.769531 C 567.945312 264.460938 568.492188 265.097656 569.101562 265.679688 L 588.195312 284.59375 C 586.113281 286.3125 584.085938 288.113281 582.117188 289.996094 C 568.566406 303.070312 559.082031 319.394531 555.402344 335.996094 L 555.371094 336.148438 C 555.371094 336.1875 555.371094 336.226562 555.371094 336.269531 C 550.835938 358.015625 548.617188 380.496094 548.570312 405.039062 C 548.613281 429.472656 550.828125 451.9375 555.351562 473.71875 L 555.351562 473.785156 L 555.382812 473.9375 L 555.382812 474.03125 C 559.050781 490.601562 568.535156 506.921875 582.097656 519.988281 C 595.664062 533.054688 612.324219 542.035156 629.101562 545.269531 C 645.878906 548.503906 686.472656 552.242188 716.039062 552.242188 C 717.222656 552.242188 718.390625 552.242188 719.53125 552.242188 L 722.871094 552.242188 C 752.699219 552.242188 793.433594 548.5625 809.867188 545.289062 C 820.488281 543.128906 830.398438 539.175781 839.59375 533.4375 L 868.8125 562.359375 C 869.402344 562.960938 870.042969 563.503906 870.738281 563.980469 C 871.4375 564.457031 872.171875 564.859375 872.949219 565.1875 C 873.722656 565.519531 874.523438 565.769531 875.351562 565.9375 C 876.175781 566.109375 877.011719 566.195312 877.855469 566.199219 C 878.699219 566.203125 879.53125 566.125 880.359375 565.960938 C 881.1875 565.796875 881.992188 565.554688 882.769531 565.230469 C 883.546875 564.910156 884.289062 564.511719 884.988281 564.042969 C 885.6875 563.570312 886.332031 563.035156 886.925781 562.4375 C 887.519531 561.835938 888.046875 561.183594 888.511719 560.480469 C 888.976562 559.777344 889.363281 559.03125 889.679688 558.25 C 889.996094 557.46875 890.230469 556.660156 890.382812 555.832031 C 890.539062 555.003906 890.609375 554.167969 890.597656 553.324219 C 890.585938 552.480469 890.488281 551.644531 890.3125 550.820312 C 890.132812 549.996094 889.875 549.199219 889.539062 548.425781 C 889.199219 547.652344 888.789062 546.921875 888.308594 546.230469 C 887.824219 545.539062 887.277344 544.902344 886.667969 544.320312 Z M 649.875 351.996094 C 650.636719 351.996094 651.390625 352.070312 652.140625 352.21875 C 652.886719 352.367188 653.613281 352.585938 654.320312 352.878906 C 655.023438 353.167969 655.695312 353.527344 656.328125 353.949219 C 656.960938 354.375 657.550781 354.855469 658.089844 355.394531 C 658.628906 355.933594 659.109375 356.519531 659.535156 357.152344 C 659.957031 357.789062 660.316406 358.457031 660.609375 359.164062 C 660.902344 359.867188 661.121094 360.59375 661.269531 361.339844 C 661.417969 362.089844 661.496094 362.84375 661.496094 363.609375 C 661.496094 364.371094 661.421875 365.125 661.273438 365.875 C 661.125 366.625 660.902344 367.351562 660.613281 368.054688 C 660.320312 368.761719 659.960938 369.429688 659.539062 370.0625 C 659.117188 370.699219 658.632812 371.285156 658.09375 371.824219 C 657.554688 372.363281 656.96875 372.847656 656.335938 373.269531 C 655.703125 373.695312 655.03125 374.054688 654.328125 374.34375 C 653.621094 374.636719 652.898438 374.859375 652.148438 375.007812 C 651.402344 375.15625 650.644531 375.230469 649.882812 375.230469 C 649.121094 375.230469 648.363281 375.15625 647.617188 375.007812 C 646.867188 374.859375 646.140625 374.640625 645.4375 374.347656 C 644.734375 374.054688 644.0625 373.695312 643.429688 373.273438 C 642.792969 372.851562 642.207031 372.367188 641.667969 371.828125 C 641.128906 371.289062 640.648438 370.703125 640.222656 370.066406 C 639.800781 369.433594 639.441406 368.765625 639.152344 368.058594 C 638.859375 367.355469 638.636719 366.628906 638.488281 365.878906 C 638.339844 365.132812 638.265625 364.375 638.265625 363.613281 C 638.265625 362.851562 638.34375 362.09375 638.492188 361.347656 C 638.640625 360.601562 638.859375 359.875 639.152344 359.171875 C 639.445312 358.464844 639.804688 357.796875 640.226562 357.164062 C 640.648438 356.53125 641.128906 355.941406 641.667969 355.402344 C 642.207031 354.863281 642.792969 354.382812 643.425781 353.960938 C 644.0625 353.535156 644.730469 353.175781 645.433594 352.886719 C 646.136719 352.59375 646.863281 352.371094 647.609375 352.222656 C 648.355469 352.070312 649.113281 351.996094 649.875 351.996094 Z M 581.410156 473.050781 C 580.941406 471.566406 580.542969 470.078125 580.207031 468.582031 L 580.207031 468.519531 C 576.046875 448.476562 574.003906 427.675781 573.96875 405.054688 C 574.011719 382.339844 576.046875 361.527344 580.203125 341.507812 L 580.203125 341.464844 C 583.460938 326.769531 593.472656 312.570312 606.410156 302.632812 L 634.183594 330.121094 C 633.515625 330.4375 632.851562 330.769531 632.199219 331.125 C 631.550781 331.480469 630.910156 331.851562 630.28125 332.246094 C 629.652344 332.636719 629.035156 333.050781 628.429688 333.480469 C 627.824219 333.910156 627.234375 334.355469 626.65625 334.824219 C 626.082031 335.289062 625.519531 335.769531 624.96875 336.269531 C 624.421875 336.769531 623.886719 337.285156 623.371094 337.816406 C 622.851562 338.347656 622.351562 338.894531 621.867188 339.453125 C 621.382812 340.015625 620.917969 340.589844 620.464844 341.179688 C 620.015625 341.769531 619.585938 342.371094 619.171875 342.988281 C 618.757812 343.605469 618.363281 344.230469 617.984375 344.871094 C 617.609375 345.507812 617.253906 346.160156 616.917969 346.820312 C 616.578125 347.480469 616.261719 348.152344 615.964844 348.832031 C 615.667969 349.511719 615.394531 350.199219 615.140625 350.894531 C 614.882812 351.589844 614.648438 352.296875 614.4375 353.003906 C 614.222656 353.714844 614.03125 354.433594 613.863281 355.152344 C 613.691406 355.875 613.542969 356.601562 613.417969 357.332031 C 613.292969 358.0625 613.1875 358.796875 613.105469 359.535156 C 613.023438 360.273438 612.964844 361.011719 612.925781 361.753906 C 612.886719 362.492188 612.871094 363.234375 612.878906 363.976562 C 612.886719 364.71875 612.914062 365.457031 612.96875 366.199219 C 613.019531 366.9375 613.09375 367.675781 613.1875 368.410156 C 613.285156 369.148438 613.402344 369.878906 613.542969 370.605469 C 613.679688 371.335938 613.84375 372.058594 614.027344 372.777344 C 614.210938 373.496094 614.414062 374.207031 614.640625 374.914062 C 614.867188 375.621094 615.113281 376.320312 615.382812 377.011719 C 615.648438 377.703125 615.9375 378.386719 616.246094 379.058594 C 616.558594 379.734375 616.886719 380.398438 617.234375 381.054688 C 617.585938 381.707031 617.953125 382.351562 618.339844 382.984375 C 618.730469 383.613281 619.136719 384.234375 619.558594 384.84375 C 619.984375 385.449219 620.429688 386.042969 620.890625 386.625 C 621.351562 387.207031 621.828125 387.773438 622.324219 388.324219 C 622.816406 388.878906 623.328125 389.414062 623.855469 389.9375 C 624.382812 390.457031 624.925781 390.964844 625.484375 391.453125 C 626.039062 391.941406 626.613281 392.414062 627.199219 392.867188 C 627.785156 393.320312 628.382812 393.757812 628.996094 394.175781 C 629.609375 394.59375 630.230469 394.996094 630.867188 395.375 C 631.503906 395.757812 632.152344 396.117188 632.808594 396.460938 C 633.46875 396.804688 634.132812 397.125 634.8125 397.425781 C 635.488281 397.726562 636.175781 398.007812 636.867188 398.269531 C 637.5625 398.53125 638.265625 398.769531 638.972656 398.988281 C 639.683594 399.207031 640.394531 399.402344 641.117188 399.578125 C 641.835938 399.753906 642.5625 399.910156 643.292969 400.039062 C 644.023438 400.171875 644.753906 400.28125 645.492188 400.371094 C 646.226562 400.457031 646.964844 400.523438 647.707031 400.566406 C 648.445312 400.609375 649.1875 400.628906 649.929688 400.628906 C 650.667969 400.628906 651.410156 400.605469 652.148438 400.558594 C 652.890625 400.511719 653.628906 400.445312 654.363281 400.355469 C 655.101562 400.265625 655.832031 400.152344 656.5625 400.019531 C 657.292969 399.882812 658.015625 399.726562 658.734375 399.550781 C 659.457031 399.371094 660.167969 399.171875 660.878906 398.953125 C 661.585938 398.730469 662.285156 398.488281 662.980469 398.226562 C 663.671875 397.960938 664.355469 397.679688 665.035156 397.375 C 665.710938 397.070312 666.375 396.746094 667.03125 396.402344 C 667.691406 396.058594 668.335938 395.695312 668.96875 395.3125 C 669.605469 394.929688 670.226562 394.527344 670.839844 394.105469 C 671.449219 393.683594 672.046875 393.246094 672.632812 392.789062 C 673.214844 392.332031 673.785156 391.859375 674.339844 391.367188 C 674.898438 390.878906 675.4375 390.371094 675.964844 389.847656 C 676.488281 389.324219 677 388.785156 677.492188 388.230469 C 677.984375 387.675781 678.460938 387.109375 678.917969 386.527344 C 679.378906 385.945312 679.820312 385.347656 680.242188 384.738281 C 680.664062 384.128906 681.070312 383.507812 681.453125 382.875 C 681.839844 382.242188 682.207031 381.597656 682.554688 380.941406 C 682.902344 380.285156 683.226562 379.621094 683.535156 378.945312 L 722.9375 417.980469 C 713.101562 429.90625 703.210938 442.585938 693.757812 455.394531 C 688.519531 448.964844 683.3125 442.859375 678.136719 437.066406 C 670.070312 428.09375 658.15625 423.117188 644.597656 423.039062 L 644.484375 423.039062 C 630.925781 423.089844 619.011719 428.070312 610.917969 437.066406 C 601.207031 447.949219 591.15625 460.210938 581.410156 473.050781 Z M 805.03125 520.375 C 790.003906 523.371094 750.875 526.855469 722.9375 526.855469 C 721.84375 526.855469 720.769531 526.855469 719.710938 526.855469 L 719.4375 526.855469 C 692.371094 527.144531 649.921875 523.550781 634.050781 520.382812 C 619.613281 517.570312 605.566406 508.679688 595.316406 496.960938 C 606.597656 481.59375 618.503906 466.777344 629.871094 454.050781 C 633.03125 450.527344 638.398438 448.492188 644.5625 448.453125 C 650.730469 448.410156 656.125 450.527344 659.257812 454.015625 C 667.417969 463.15625 675.828125 473.316406 684.25 484.21875 C 684.550781 484.613281 684.875 484.984375 685.222656 485.339844 C 685.566406 485.691406 685.933594 486.023438 686.316406 486.335938 C 686.703125 486.644531 687.105469 486.933594 687.523438 487.199219 C 687.941406 487.460938 688.375 487.699219 688.820312 487.914062 C 689.265625 488.125 689.722656 488.3125 690.191406 488.472656 C 690.660156 488.632812 691.136719 488.765625 691.621094 488.871094 C 692.105469 488.972656 692.59375 489.050781 693.085938 489.097656 C 693.578125 489.144531 694.070312 489.160156 694.566406 489.152344 C 695.058594 489.140625 695.550781 489.101562 696.042969 489.03125 C 696.53125 488.964844 697.015625 488.867188 697.496094 488.742188 C 697.972656 488.617188 698.445312 488.464844 698.90625 488.285156 C 699.367188 488.105469 699.8125 487.898438 700.25 487.667969 C 700.6875 487.433594 701.109375 487.175781 701.515625 486.894531 C 701.921875 486.613281 702.3125 486.308594 702.683594 485.980469 C 703.054688 485.65625 703.40625 485.304688 703.734375 484.9375 C 704.066406 484.570312 704.375 484.183594 704.660156 483.777344 C 716.167969 467.492188 728.667969 451.105469 741.109375 435.933594 L 820.847656 514.84375 C 815.828125 517.414062 810.558594 519.257812 805.03125 520.375 Z M 805.03125 520.375 " fill-opacity="1" fill-rule="nonzero"/></g><path fill="#b3b3b3" d="M 883.722656 336.1875 L 883.6875 336.035156 C 883.683594 336.011719 883.683594 335.988281 883.6875 335.96875 C 880.019531 319.398438 870.539062 303.078125 856.972656 290.011719 C 843.410156 276.945312 826.746094 267.964844 809.96875 264.722656 C 792.605469 261.265625 749.359375 257.484375 719.546875 257.769531 C 695.402344 257.523438 662.457031 259.960938 641.597656 262.742188 L 664.847656 285.742188 C 682.734375 284.132812 703.675781 282.984375 719.414062 283.15625 L 719.671875 283.15625 C 746.769531 282.863281 789.25 286.496094 805.066406 289.628906 C 829.871094 294.460938 853.507812 317.203125 858.882812 341.417969 L 858.882812 341.484375 C 863.042969 361.527344 865.082031 382.320312 865.121094 404.953125 C 865.121094 417.203125 864.453125 429.417969 863.117188 441.597656 C 850.882812 425.816406 837.011719 408.660156 826.097656 396.441406 C 816.019531 385.191406 801.027344 378.945312 783.835938 378.878906 L 783.726562 378.878906 C 776.46875 378.863281 769.417969 380.054688 762.570312 382.460938 L 784.609375 404.285156 C 790.511719 404.433594 800.496094 405.910156 807.222656 413.382812 C 822.148438 430.085938 842.972656 456.609375 856.898438 475.308594 C 856.851562 475.433594 856.800781 475.554688 856.753906 475.683594 L 875.988281 494.722656 C 879.460938 488.160156 882.019531 481.253906 883.660156 474.011719 C 883.664062 473.984375 883.664062 473.953125 883.660156 473.925781 L 883.695312 473.773438 L 883.695312 473.699219 C 888.210938 451.9375 890.425781 429.457031 890.472656 404.933594 C 890.519531 380.410156 888.214844 358.035156 883.695312 336.253906 Z M 883.722656 336.1875 " fill-opacity="1" fill-rule="nonzero"/></svg>